<svg width="91" height="27" viewBox="0 0 91 27" fill="none" xmlns="http://www.w3.org/2000/svg">
<g clip-path="url(#clip0_11_18097)">
<path fill-rule="evenodd" clip-rule="evenodd" d="M56.1154 21.0943C50.9234 24.928 43.3979 26.9734 36.9185 26.9734C27.8335 26.9734 19.6546 23.6073 13.467 18.0087C12.9808 17.5684 13.4164 16.9685 13.9998 17.3113C20.6775 21.2034 28.9341 23.5449 37.463 23.5449C43.2151 23.5449 49.5427 22.3528 55.3609 19.8788C56.2398 19.5048 56.9749 20.4554 56.1154 21.0943Z" fill="#4E4E4E"/>
<path fill-rule="evenodd" clip-rule="evenodd" d="M58.2737 18.6201C57.6126 17.7708 53.8868 18.2188 52.2144 18.4175C51.705 18.4798 51.6272 18.0357 52.0861 17.7162C55.0535 15.6241 59.9227 16.2279 60.4905 16.9292C61.0584 17.6344 60.3428 22.5239 57.5542 24.8576C57.1264 25.2161 56.7181 25.0252 56.9086 24.5498C57.5348 22.9836 58.9388 19.4733 58.2737 18.6201Z" fill="#4E4E4E"/>
<path fill-rule="evenodd" clip-rule="evenodd" d="M52.3299 2.94512V0.9114C52.3299 0.603614 52.5632 0.397125 52.8432 0.397125H61.9322C62.2239 0.397125 62.4572 0.607511 62.4572 0.9114V2.65292C62.4533 2.94512 62.2083 3.32693 61.7727 3.93082L57.063 10.667C58.8131 10.6242 60.6604 10.8852 62.2472 11.7813C62.605 11.9839 62.7022 12.28 62.7295 12.5722V14.7423C62.7295 15.0384 62.4028 15.3851 62.0605 15.2059C59.2642 13.7371 55.5501 13.5774 52.4582 15.2215C52.1432 15.3929 51.8126 15.0501 51.8126 14.754V12.693C51.8126 12.3618 51.8165 11.7969 52.1471 11.2943L57.6036 3.4555H52.8549C52.5632 3.4555 52.3299 3.24902 52.3299 2.94512Z" fill="black"/>
<path fill-rule="evenodd" clip-rule="evenodd" d="M19.1768 15.6352H16.4117C16.1472 15.6157 15.9372 15.417 15.9177 15.1637V0.947155C15.9177 0.662745 16.155 0.436774 16.4506 0.436774H19.0291C19.2974 0.448454 19.5113 0.654951 19.5308 0.912088V2.77049H19.5813C20.2541 0.974424 21.5181 0.13678 23.2216 0.13678C24.9522 0.13678 26.0334 0.974424 26.8112 2.77049C27.4802 0.974424 29.0008 0.13678 30.6304 0.13678C31.7893 0.13678 33.0572 0.61599 33.8312 1.69129C34.7062 2.88737 34.5273 4.625 34.5273 6.14834L34.5234 15.1209C34.5234 15.4053 34.2862 15.6352 33.9906 15.6352H31.2293C30.9532 15.6157 30.7315 15.3936 30.7315 15.1209V7.58597C30.7315 6.98599 30.7859 5.48991 30.6537 4.92109C30.4476 3.96657 29.8292 3.69774 29.0281 3.69774C28.3591 3.69774 27.6591 4.14579 27.3752 4.86266C27.0913 5.57952 27.1185 6.77949 27.1185 7.58597V15.1209C27.1185 15.4053 26.8812 15.6352 26.5857 15.6352H23.8244C23.5444 15.6157 23.3266 15.3936 23.3266 15.1209L23.3227 7.58597C23.3227 6.00029 23.5833 3.66658 21.6192 3.66658C19.6319 3.66658 19.7097 5.94185 19.7097 7.58597V15.1209C19.7097 15.4053 19.4724 15.6352 19.1768 15.6352" fill="black"/>
<path fill-rule="evenodd" clip-rule="evenodd" d="M70.2834 0.13678C74.3864 0.13678 76.6071 3.66658 76.6071 8.15479C76.6071 12.4911 74.1531 15.9313 70.2834 15.9313C66.2542 15.9313 64.0607 12.4015 64.0607 8.00285C64.0607 3.57697 66.2814 0.13678 70.2834 0.13678ZM70.3067 3.03932C68.2688 3.03932 68.1404 5.82107 68.1404 7.55481C68.1404 9.29243 68.1132 13.0014 70.2834 13.0014C72.4263 13.0014 72.5274 10.0093 72.5274 8.18596C72.5274 6.98599 72.4768 5.55225 72.1152 4.41461C71.804 3.42502 71.1856 3.03932 70.3067 3.03932Z" fill="black"/>
<path fill-rule="evenodd" clip-rule="evenodd" d="M81.9281 15.6352H79.1746C78.8984 15.6157 78.6767 15.3936 78.6767 15.1209L78.6729 0.9004C78.6962 0.639366 78.9257 0.436774 79.2057 0.436774H81.7686C82.0097 0.448454 82.2081 0.612095 82.2625 0.834169V3.00815H82.3131C83.087 1.06403 84.1721 0.13678 86.0817 0.13678C87.3223 0.13678 88.5319 0.584823 89.3097 1.81207C90.0331 2.94971 90.0331 4.86265 90.0331 6.23795V15.1871C90.0019 15.4365 89.7725 15.6352 89.5002 15.6352H86.7273C86.4745 15.6157 86.2645 15.4287 86.2373 15.1871V7.4652C86.2373 5.91068 86.4162 3.63541 84.5066 3.63541C83.8338 3.63541 83.2154 4.08735 82.9081 4.77304C82.5192 5.64186 82.4687 6.50678 82.4687 7.4652V15.1209C82.4648 15.4053 82.2237 15.6352 81.9281 15.6352" fill="black"/>
<path fill-rule="evenodd" clip-rule="evenodd" d="M45.0849 8.84409C45.0849 9.92329 45.1121 10.8233 44.5676 11.7817C44.1282 12.5609 43.4281 13.0401 42.6542 13.0401C41.5924 13.0401 40.9702 12.2297 40.9702 11.0337C40.9702 8.67267 43.082 8.24411 45.0849 8.24411V8.84409ZM47.8734 15.5959C47.6906 15.7595 47.4261 15.7712 47.22 15.6621C46.3022 14.8985 46.135 14.544 45.6333 13.8154C44.1165 15.366 43.0392 15.8297 41.0752 15.8297C38.7456 15.8297 36.9371 14.392 36.9371 11.5129C36.9371 9.26486 38.1505 7.73373 39.8851 6.98569C41.3863 6.32337 43.4825 6.20649 45.0849 6.02337V5.66494C45.0849 5.00651 45.1354 4.22731 44.7465 3.65849C44.4121 3.14811 43.7665 2.93772 43.1948 2.93772C42.1408 2.93772 41.2035 3.47927 40.9741 4.60132C40.9274 4.85067 40.7446 5.09612 40.4918 5.10781L37.8122 4.8195C37.5866 4.76886 37.3338 4.58574 37.3999 4.239C38.0144 0.981922 40.9546 0.00012207 43.5837 0.00012207C44.9293 0.00012207 46.6872 0.358557 47.7489 1.37931C49.0946 2.63773 48.9662 4.31691 48.9662 6.14415V10.4609C48.9662 11.7583 49.5029 12.3271 50.0085 13.0284C50.1836 13.2778 50.2224 13.5778 49.9969 13.7648C49.4329 14.2362 48.4295 15.1128 47.8773 15.6037L47.8734 15.5959" fill="black"/>
<path fill-rule="evenodd" clip-rule="evenodd" d="M8.83441 8.84409C8.83441 9.92329 8.86163 10.8233 8.31715 11.7817C7.87767 12.5609 7.18152 13.0401 6.40369 13.0401C5.34195 13.0401 4.72358 12.2297 4.72358 11.0337C4.72358 8.67267 6.83538 8.24411 8.83441 8.24411V8.84409ZM11.6229 15.5959C11.4401 15.7595 11.1757 15.7712 10.9695 15.6621C10.0517 14.8985 9.88836 14.544 9.38277 13.8154C7.86601 15.366 6.7926 15.8297 4.82469 15.8297C2.49898 15.8297 0.686646 14.392 0.686646 11.5129C0.686646 9.26486 1.90395 7.73373 3.63462 6.98569C5.13583 6.32337 7.23208 6.20649 8.83441 6.02337V5.66494C8.83441 5.00651 8.88496 4.22731 8.49994 3.65849C8.16158 3.14811 7.51599 2.93772 6.94817 2.93772C5.89421 2.93772 4.95304 3.47927 4.72358 4.60132C4.67691 4.85067 4.49412 5.09612 4.24521 5.10781L1.5617 4.8195C1.33613 4.76886 1.08723 4.58574 1.14945 4.239C1.76783 0.981922 4.70413 0.00012207 7.3332 0.00012207C8.67884 0.00012207 10.4367 0.358557 11.4985 1.37931C12.8441 2.63773 12.7158 4.31691 12.7158 6.14415V10.4609C12.7158 11.7583 13.2525 12.3271 13.7581 13.0284C13.937 13.2778 13.9759 13.5778 13.7503 13.7648C13.1864 14.2362 12.183 15.1128 11.6307 15.6037L11.6229 15.5959" fill="black"/>
</g>
<defs>
<clipPath id="clip0_11_18097">
<rect width="89.3454" height="26.9722" fill="white" transform="translate(0.686676)"/>
</clipPath>
</defs>
</svg>
