<svg width="7" height="12" viewBox="0 0 7 12" fill="none" xmlns="http://www.w3.org/2000/svg">
<path d="M6.91992 5.99805C6.91992 6.31445 6.80859 6.57227 6.53906 6.83008L2.41406 10.8789C2.2207 11.0664 1.99219 11.1602 1.72266 11.1602C1.16602 11.1602 0.708984 10.709 0.708984 10.1582C0.708984 9.87695 0.826172 9.625 1.03711 9.41406L4.57031 5.99219L1.03711 2.58203C0.820312 2.37109 0.708984 2.11328 0.708984 1.83789C0.708984 1.29297 1.16602 0.841797 1.72266 0.841797C1.99805 0.841797 2.2207 0.929688 2.41406 1.12305L6.53906 5.16016C6.80273 5.42383 6.91406 5.67578 6.91992 5.99805Z" fill="black"/>
</svg>
