<svg width="117" height="135" viewBox="0 0 117 135" fill="none" xmlns="http://www.w3.org/2000/svg">
<path d="M5.1537 34.7772L58.9814 64.6815V130.471L5.1537 100.567V34.7772Z" fill="white" fill-opacity="0.01"/>
<path d="M112.809 34.7772L58.9814 64.6815V130.471L112.809 100.567V34.7772Z" fill="white" fill-opacity="0.01"/>
<path d="M58.9814 4.57393L112.809 34.7772L58.9814 64.6815L5.1537 34.7772L58.9814 4.57393Z" fill="white" fill-opacity="0.01"/>
<path fill-rule="evenodd" clip-rule="evenodd" d="M56.9328 0.922824C58.2052 0.208831 59.7576 0.208831 61.0301 0.922824L114.858 31.1261C116.178 31.867 116.996 33.2631 116.996 34.7772V100.567C116.996 102.087 116.171 103.488 114.842 104.226L61.0146 134.131C59.7502 134.833 58.2127 134.833 56.9482 134.131L3.12051 104.226C1.79141 103.488 0.967102 102.087 0.967102 100.567V34.7772C0.967102 33.2631 1.7846 31.867 3.10503 31.1261L56.9328 0.922824ZM9.3403 42.8448C9.3403 42.4175 9.79936 42.1474 10.1729 42.3549L54.2183 66.8246C54.5741 67.0223 54.7948 67.3973 54.7948 67.8044V122.403C54.7948 122.831 54.3358 123.101 53.9622 122.893L10.2051 98.5836C9.67134 98.2871 9.3403 97.7245 9.3403 97.1139V42.8448ZM63.168 123.356L108.623 98.1032V41.8924L63.168 67.1449V123.356ZM57.8927 59.2873C58.5698 59.6635 59.393 59.6635 60.0701 59.2873L103.344 35.2465C103.727 35.0335 103.728 34.4824 103.346 34.2678L60.0784 9.99009C59.397 9.60777 58.5658 9.60777 57.8844 9.99009L14.6171 34.2678C14.2346 34.4824 14.2358 35.0335 14.6192 35.2465L57.8927 59.2873Z" fill="white"/>
<path fill-rule="evenodd" clip-rule="evenodd" d="M69.2338 46.3828C66.6756 45.377 63.6685 44.6 60.1904 44.4496C55.7554 44.2574 52.028 45.1311 49.0436 46.3651C47.8437 46.4063 46.8186 45.8582 46.9032 45.2202C49.2361 43.6474 50.8963 41.6873 50.6072 39.3549C50.372 37.4636 48.9022 35.8337 46.9955 34.4581C46.7675 33.7385 47.9773 33.099 49.3292 33.2256C51.9036 34.2484 54.9591 35.0413 58.5146 35.1784C62.8992 35.3476 66.5961 34.4781 69.5698 33.2482C70.7697 33.207 71.794 33.7555 71.7088 34.3939C69.368 35.9731 67.7 37.9486 68.0325 40.3079C68.2932 42.1584 69.7339 43.7622 71.6086 45.1292C71.8772 45.868 70.6219 46.5309 69.2338 46.3828Z" fill="white"/>
<path fill-rule="evenodd" clip-rule="evenodd" d="M65.4901 27.7565C63.7845 27.086 61.7804 26.5682 59.4617 26.4677C56.5043 26.3396 54.02 26.9217 52.0302 27.7448C51.2303 27.772 50.5469 27.4063 50.6038 26.9818C52.1595 25.9332 53.2656 24.6267 53.0731 23.0716C52.9168 21.8107 51.9357 20.724 50.6648 19.8073C50.5128 19.3276 51.3191 18.9011 52.2206 18.9853C53.9369 19.6675 55.9736 20.1959 58.3435 20.2873C61.2668 20.4003 63.7312 19.8205 65.7139 19.0004C66.5138 18.9732 67.1972 19.3389 67.1397 19.7638C65.5789 20.8165 64.4672 22.1337 64.6888 23.7065C64.8621 24.9402 65.8233 26.0095 67.0722 26.9206C67.2533 27.4135 66.4165 27.8554 65.4901 27.7565Z" fill="white"/>
<path d="M24.197 91.974C23.1325 91.5331 22.4708 90.3715 22.4708 89.0169V67.1252C22.4708 65.7706 23.1325 65.1727 24.197 65.6136C24.7724 65.852 25.2615 66.2881 25.8369 66.8846L42.6098 84.342C43.8038 85.5839 44.2209 86.255 44.2209 87.0802C44.2209 87.9054 43.8038 88.2309 42.6098 88.4993L25.8369 92.046C25.2615 92.1658 24.7724 92.2123 24.197 91.974Z" fill="white"/>
<path fill-rule="evenodd" clip-rule="evenodd" d="M110.144 40.9372L62.4064 66.3199V124.802L110.144 98.383V40.9372ZM93.6498 97.0184C91.7099 98.4027 89.7204 99.6369 87.6814 100.721C85.6424 101.805 83.6459 102.69 81.6918 103.377C79.7377 104.063 77.9536 104.466 76.3394 104.587C74.7251 104.707 73.4118 104.464 72.3994 103.855C71.7126 103.443 71.1958 102.851 70.8489 102.082C70.502 101.312 70.3533 100.34 70.4028 99.1675C70.4312 98.4789 70.5444 97.7852 70.7427 97.0864C70.9338 96.3994 71.21 95.7554 71.571 95.1545C71.8401 94.7068 72.1516 94.3166 72.5056 93.984C72.8596 93.6355 73.249 93.3883 73.6738 93.2426L79.2492 91.3486C79.6669 91.2147 80.0245 91.1408 80.3218 91.1271C80.6192 91.1133 80.8634 91.1638 81.0546 91.2787C81.2953 91.4233 81.4617 91.6757 81.5537 92.0357C81.6529 92.3839 81.7024 92.8306 81.7024 93.3759L81.713 95.0662C81.706 95.3185 81.7838 95.4936 81.9467 95.5914C82.0316 95.6425 82.1272 95.6678 82.2334 95.6675C82.3325 95.6629 82.4175 95.6578 82.4883 95.6523C82.998 95.5576 83.7273 95.3062 84.676 94.898C85.6318 94.478 86.6336 93.9894 87.6814 93.4323C88.7222 92.8709 89.7204 92.292 90.6762 91.6956C91.632 91.0992 92.3577 90.581 92.8533 90.1411C92.9383 90.0638 93.0303 89.9748 93.1294 89.874C93.2286 89.7571 93.3171 89.6339 93.3949 89.5043C93.5507 89.2451 93.6286 88.9952 93.6286 88.7546L93.6498 87.0113C93.6569 86.4703 93.7064 85.9709 93.7985 85.513C93.8905 85.0551 94.0569 84.6259 94.2976 84.2252C94.4888 83.9071 94.733 83.5968 95.0304 83.2944C95.3278 82.9919 95.6924 82.6898 96.1242 82.388L101.625 78.4046C102.057 78.0867 102.461 77.9122 102.836 77.8811C103.211 77.834 103.54 77.8954 103.824 78.0656C104.553 78.5038 104.928 79.4269 104.949 80.8348C104.971 81.9702 104.801 83.111 104.44 84.2572C104.079 85.3873 103.558 86.518 102.879 87.6491C101.859 89.3459 100.549 90.9885 98.9491 92.577C97.3562 94.1537 95.5897 95.6342 93.6498 97.0184ZM74.8834 72.5881C74.8834 70.2128 76.5835 67.3834 78.6807 66.2682C80.7779 65.1531 82.478 66.1747 82.478 68.5499V74.6938C82.478 77.0691 80.7779 79.8986 78.6807 81.0137C76.5835 82.1288 74.8834 81.1072 74.8834 78.732V72.5881ZM93.87 58.1919C91.7728 59.3071 90.0727 62.1365 90.0727 64.5118V70.6557C90.0727 73.0309 91.7728 74.0525 93.87 72.9374C95.9673 71.8223 97.6674 68.9928 97.6674 66.6175V60.4736C97.6674 58.0984 95.9673 57.0768 93.87 58.1919Z" fill="white"/>
</svg>
