<svg width="177" height="26" viewBox="0 0 177 26" fill="none" xmlns="http://www.w3.org/2000/svg">
<path d="M67.9472 4.28503V10.7688H60.5234V4.28503H56.4314V21.2983H60.5234V14.4578H67.9472V21.2983H72.0392V4.28503H67.9472Z" fill="black"/>
<path d="M87.0266 4.28503L82.747 11.0229L78.4724 4.28503H73.6449L80.7084 15.4057V21.2983H84.7955V15.4057L91.859 4.28503H87.0266Z" fill="black"/>
<path d="M105.016 4.28503V16.7543C105.016 17.2282 104.656 17.6093 104.147 17.6093H97.5922V4.28503H93.5002V21.2983H105.589C106.665 21.2983 107.528 20.9805 108.16 20.3601C108.787 19.7347 109.103 18.8797 109.103 17.8194V4.28503H105.016Z" fill="black"/>
<path d="M124.98 4.28503H112.892V21.2983H116.979V7.96909H123.544C124.072 7.96909 124.408 8.37953 124.408 8.81926V21.2983H128.495V7.76393C128.495 6.69878 128.174 5.8437 127.552 5.22317C126.915 4.59775 126.056 4.28503 124.98 4.28503Z" fill="black"/>
<path d="M144.376 4.28503H132.288V21.2983H144.376C145.452 21.2983 146.311 20.9805 146.938 20.3601C147.57 19.7347 147.886 18.8797 147.886 17.8194V7.76393C147.886 6.69878 147.57 5.8437 146.938 5.22317C146.311 4.59775 145.447 4.28503 144.376 4.28503ZM143.799 8.84858V16.7298C143.799 17.1891 143.463 17.6093 142.93 17.6093H136.37V7.96909H142.9C143.438 7.96909 143.799 8.34045 143.799 8.84858Z" fill="black"/>
<path d="M155.013 4.28503C153.942 4.28503 153.073 4.59775 152.446 5.22317C151.815 5.84859 151.504 6.70368 151.504 7.76393V21.2983H155.581V16.036H163.01V21.2983H167.097V4.28503H155.013ZM163.01 7.96909V12.3519H155.581V8.83397C155.581 8.41378 155.911 7.96909 156.454 7.96909H163.01Z" fill="black"/>
<path d="M171.075 21.2983H175.167V4.28503H171.075V21.2983Z" fill="black"/>
<path d="M24.4591 24.6402C37.3718 24.6402 47.8412 19.3339 47.8412 12.7915C47.8412 6.24417 37.3718 0.937836 24.4591 0.937836C11.5513 0.937836 1.08194 6.24417 1.08194 12.7915C1.08194 19.3339 11.5513 24.6402 24.4591 24.6402ZM28.8621 18.8258C28.4721 19.7199 27.8008 21.6303 26.2607 22.3925C25.7918 22.6223 25.2143 22.7298 24.7009 22.7493C24.5824 22.7493 24.4986 22.7493 24.4638 22.7493C20.1497 22.7493 16.1318 22.1531 12.7703 21.1417C12.7452 21.131 12.6668 21.1027 12.6421 21.0928C12.3312 20.9903 12.1731 20.8485 12.1731 20.6726C12.1731 20.5212 12.257 20.4039 12.3655 20.2964C12.415 20.2524 12.4841 20.1939 12.5779 20.1106C13.3578 19.4705 15.6926 17.7946 20.0955 16.1236C21.6405 15.5421 23.5754 14.8141 25.5992 14.389C26.7838 14.1447 31.1868 13.4753 28.8619 18.8255L28.8621 18.8258ZM40.6739 6.87916C40.7578 6.73733 40.8666 6.61533 41.0688 6.6054C41.1773 6.59476 41.3256 6.61958 41.5525 6.76176C44.297 8.43279 45.9258 10.5241 45.9258 12.7863C45.9258 16.871 40.6196 20.3841 33.028 21.9183C32.5443 22.0161 32.2185 22.0112 32.1099 21.8899C32.0311 21.8165 32.0114 21.6847 32.1099 21.5235C32.1543 21.4406 32.2087 21.3671 32.3122 21.2448C36.4437 16.4223 39.5929 9.30809 40.4863 7.25593C40.5554 7.1141 40.6196 6.97271 40.6741 6.87981L40.6739 6.87916ZM20.1302 6.72843C20.5201 5.83429 21.1914 3.92375 22.7315 3.16643C23.2004 2.93667 23.7779 2.82432 24.2913 2.80978C24.4098 2.80624 24.4937 2.80978 24.5234 2.80978C28.8424 2.80978 32.8554 3.40098 36.2218 4.41728C36.2469 4.42792 36.3253 4.45626 36.35 4.46619C36.661 4.56866 36.8189 4.71045 36.8189 4.88635C36.8189 5.03775 36.7351 5.15017 36.6266 5.25771C36.5772 5.30664 36.5081 5.36514 36.4142 5.4435C35.6393 6.08845 33.2996 7.75949 28.8966 9.43053C27.3467 10.0168 25.4167 10.74 23.3979 11.1651C22.2083 11.4143 17.8053 12.0788 20.1302 6.72854V6.72843ZM15.8901 3.65519C16.3788 3.56229 16.6996 3.56228 16.8181 3.68354C16.8872 3.76154 16.9069 3.88884 16.8145 4.05003C16.765 4.133 16.711 4.21139 16.6121 4.32379C12.4807 9.15121 9.33152 16.2604 8.43313 18.3174C8.36901 18.4592 8.29989 18.6007 8.24544 18.6936C8.16628 18.8355 8.05309 18.9575 7.85547 18.9674C7.74694 18.978 7.59396 18.9461 7.36679 18.811C4.62234 17.14 2.99348 15.0487 2.99348 12.7865C2.99348 8.70176 8.2997 5.18875 15.8913 3.65454" fill="black"/>
</svg>
