<svg width="11" height="12" viewBox="0 0 11 12" fill="none" xmlns="http://www.w3.org/2000/svg">
<path d="M4.31805 3.04513C4.64444 3.04513 4.90903 2.78054 4.90903 2.45415C4.90903 2.12777 4.64444 1.86318 4.31805 1.86318V3.04513ZM9.63683 7.18195C9.63683 6.85557 9.37224 6.59098 9.04586 6.59098C8.71947 6.59098 8.45488 6.85557 8.45488 7.18195H9.63683ZM6.68195 0.681226C6.35557 0.681226 6.09098 0.945815 6.09098 1.2722C6.09098 1.59859 6.35557 1.86318 6.68195 1.86318V0.681226ZM10.2278 1.2722H10.8188C10.8188 0.945815 10.5542 0.681226 10.2278 0.681226V1.2722ZM9.63683 4.81805C9.63683 5.14444 9.90142 5.40903 10.2278 5.40903C10.5542 5.40903 10.8188 5.14444 10.8188 4.81805H9.63683ZM3.90017 6.76407C3.66938 6.99486 3.66938 7.36905 3.90017 7.59984C4.13096 7.83063 4.50515 7.83063 4.73594 7.59984L3.90017 6.76407ZM7.8639 10.1368H1.95415V11.3188H7.8639V10.1368ZM1.36318 9.54586V3.6361H0.181226V9.54586H1.36318ZM1.95415 3.04513H4.31805V1.86318H1.95415V3.04513ZM8.45488 7.18195V9.54586H9.63683V7.18195H8.45488ZM1.95415 10.1368C1.62777 10.1368 1.36318 9.87224 1.36318 9.54586H0.181226C0.181226 10.525 0.974992 11.3188 1.95415 11.3188V10.1368ZM7.8639 11.3188C8.84307 11.3188 9.63683 10.525 9.63683 9.54586H8.45488C8.45488 9.87224 8.19029 10.1368 7.8639 10.1368V11.3188ZM1.36318 3.6361C1.36318 3.30972 1.62777 3.04513 1.95415 3.04513V1.86318C0.974992 1.86318 0.181226 2.65694 0.181226 3.6361H1.36318ZM6.68195 1.86318H10.2278V0.681226H6.68195V1.86318ZM9.63683 1.2722V4.81805H10.8188V1.2722H9.63683ZM9.80992 0.854319L3.90017 6.76407L4.73594 7.59984L10.6457 1.69008L9.80992 0.854319Z" fill="#8E909F"/>
</svg>
