<svg width="81" height="57" viewBox="0 0 81 57" fill="none" xmlns="http://www.w3.org/2000/svg">
<path d="M33.3727 6.14909C35.9535 3.46001 39.5465 1.7923 43.5203 1.7923C48.8027 1.7923 53.4114 4.73787 55.8657 9.11061C57.9985 8.15763 60.3592 7.62757 62.8431 7.62757C72.3706 7.62757 80.0947 15.4189 80.0947 25.0296C80.0947 34.6415 72.3706 42.4328 62.8431 42.4328C61.6804 42.4328 60.5439 42.3166 59.445 42.0943C57.2837 45.9495 53.1652 48.5542 48.4379 48.5542C46.459 48.5542 44.5873 48.0971 42.9207 47.2844C40.7298 52.438 35.6252 56.0515 29.6759 56.0515C23.4804 56.0515 18.2003 52.1313 16.1735 46.6335C15.2878 46.8216 14.3702 46.9196 13.4286 46.9196C6.05215 46.9196 0.072113 40.878 0.072113 33.424C0.072113 28.4289 2.75891 24.0675 6.75092 21.7341C5.92904 19.843 5.47193 17.7558 5.47193 15.5614C5.47193 6.98921 12.4312 0.0402336 21.0148 0.0402336C26.0544 0.0402336 30.5331 2.43636 33.3727 6.14909Z" fill="#454545"/>
<path d="M11.6626 29.0854C11.6124 29.2165 11.6808 29.2438 11.6968 29.2666C11.8473 29.376 12 29.4547 12.1539 29.5425C12.9701 29.9756 13.7407 30.1022 14.5466 30.1022C16.1881 30.1022 17.2072 29.229 17.2072 27.8235V27.7961C17.2072 26.4966 16.057 26.0247 14.9775 25.6838L14.8373 25.6382C14.0234 25.3738 13.3212 25.1458 13.3212 24.61V24.5815C13.3212 24.1233 13.7315 23.7859 14.3676 23.7859C15.0744 23.7859 15.9134 24.0207 16.4537 24.3193C16.4537 24.3193 16.6121 24.4219 16.6703 24.268C16.7022 24.186 16.9758 23.4496 17.0043 23.3698C17.035 23.2831 16.9803 23.2193 16.9245 23.1851C16.3078 22.8101 15.4551 22.5536 14.5728 22.5536L14.4087 22.5547C12.9062 22.5547 11.8575 23.4621 11.8575 24.7628V24.7901C11.8575 26.1615 13.0145 26.606 14.0986 26.9161L14.273 26.9697C15.063 27.2125 15.7435 27.4211 15.7435 27.9774V28.0047C15.7435 28.5131 15.3012 28.8916 14.5876 28.8916C14.3106 28.8916 13.4272 28.8859 12.4731 28.2829C12.3579 28.2156 12.2907 28.1666 12.2018 28.113C12.155 28.0834 12.0376 28.0321 11.9863 28.1871L11.6626 29.0854Z" fill="white"/>
<path d="M35.6933 29.0854C35.6432 29.2165 35.7116 29.2438 35.7275 29.2666C35.878 29.376 36.0307 29.4547 36.1846 29.5425C37.0008 29.9756 37.7714 30.1022 38.5773 30.1022C40.2188 30.1022 41.2379 29.229 41.2379 27.8235V27.7961C41.2379 26.4966 40.0877 26.0247 39.0082 25.6838L38.868 25.6382C38.0541 25.3738 37.3519 25.1458 37.3519 24.61V24.5815C37.3519 24.1233 37.7623 23.7859 38.3984 23.7859C39.1051 23.7859 39.9441 24.0207 40.4844 24.3193C40.4844 24.3193 40.6429 24.4219 40.701 24.268C40.7329 24.186 41.0065 23.4496 41.035 23.3698C41.0658 23.2831 41.0111 23.2193 40.9552 23.1851C40.3385 22.8101 39.4858 22.5536 38.6035 22.5536L38.4394 22.5547C36.937 22.5547 35.8882 23.4621 35.8882 24.7628V24.7901C35.8882 26.1615 37.0453 26.606 38.1293 26.9161L38.3037 26.9697C39.0937 27.2125 39.7754 27.4211 39.7754 27.9774V28.0047C39.7754 28.5131 39.332 28.8916 38.6184 28.8916C38.3414 28.8916 37.4579 28.8859 36.5038 28.2829C36.3887 28.2156 36.3203 28.1689 36.2336 28.113C36.204 28.0936 36.0649 28.0401 36.0171 28.1871L35.6933 29.0854Z" fill="white"/>
<path d="M52.0984 26.3327C52.0984 27.1272 51.9502 27.7531 51.6584 28.1954C51.37 28.6331 50.9334 28.8463 50.3247 28.8463C49.7149 28.8463 49.2806 28.6342 48.9967 28.1954C48.7094 27.7542 48.5635 27.1272 48.5635 26.3327C48.5635 25.5393 48.7094 24.9147 48.9967 24.4769C49.2806 24.0438 49.7149 23.8329 50.3247 23.8329C50.9334 23.8329 51.37 24.0438 51.6596 24.4769C51.9502 24.9147 52.0984 25.5393 52.0984 26.3327ZM53.4686 24.8599C53.3341 24.4051 53.1244 24.0039 52.8451 23.6699C52.5658 23.3347 52.2124 23.0657 51.7929 22.8696C51.3746 22.6747 50.8799 22.5755 50.3247 22.5755C49.7684 22.5755 49.2737 22.6747 48.8554 22.8696C48.4359 23.0657 48.0825 23.3347 47.8021 23.6699C47.5239 24.005 47.3142 24.4063 47.1785 24.8599C47.0452 25.3125 46.9779 25.8072 46.9779 26.3327C46.9779 26.8582 47.0452 27.3541 47.1785 27.8055C47.3142 28.2592 47.5228 28.6604 47.8032 28.9956C48.0825 29.3307 48.437 29.5986 48.8554 29.789C49.2748 29.9793 49.7684 30.0762 50.3247 30.0762C50.8799 30.0762 51.3734 29.9793 51.7929 29.789C52.2113 29.5986 52.5658 29.3307 52.8451 28.9956C53.1244 28.6616 53.3341 28.2603 53.4686 27.8055C53.6031 27.353 53.6704 26.8571 53.6704 26.3327C53.6704 25.8084 53.6031 25.3125 53.4686 24.8599Z" fill="white"/>
<path d="M64.7205 28.6339C64.6749 28.5006 64.5461 28.5507 64.5461 28.5507C64.3466 28.6271 64.1345 28.6978 63.9088 28.7331C63.6797 28.7684 63.4278 28.7867 63.1576 28.7867C62.4942 28.7867 61.9676 28.5895 61.5902 28.1996C61.2118 27.8098 60.9998 27.1794 61.002 26.3267C61.0043 25.5504 61.1913 24.9668 61.5275 24.5222C61.8615 24.0799 62.3699 23.8531 63.0482 23.8531C63.6136 23.8531 64.0445 23.9181 64.4959 24.0606C64.4959 24.0606 64.6042 24.1073 64.6555 23.9659C64.7752 23.6331 64.8641 23.3948 64.9918 23.0289C65.0282 22.9252 64.9393 22.8807 64.9074 22.8682C64.7296 22.7987 64.3101 22.6858 63.9932 22.6379C63.6968 22.5923 63.3503 22.5684 62.965 22.5684C62.3893 22.5684 61.8764 22.6664 61.4375 22.8625C60.9998 23.0574 60.6281 23.3264 60.334 23.6616C60.0399 23.9967 59.8165 24.398 59.6672 24.8517C59.519 25.3042 59.4438 25.8012 59.4438 26.3267C59.4438 27.4632 59.7504 28.382 60.3557 29.0546C60.9621 29.7294 61.8729 30.0725 63.0607 30.0725C63.7629 30.0725 64.4834 29.93 65.0009 29.726C65.0009 29.726 65.1001 29.6781 65.0567 29.563L64.7205 28.6339Z" fill="white"/>
<path d="M67.1179 25.5715C67.1828 25.1303 67.3048 24.7633 67.4929 24.4772C67.7767 24.0428 68.2099 23.8046 68.8186 23.8046C69.4273 23.8046 69.8297 24.044 70.1181 24.4772C70.3096 24.7633 70.3929 25.1463 70.4259 25.5715H67.1179ZM71.7311 24.6014C71.6149 24.1625 71.3265 23.7191 71.1372 23.5162C70.8386 23.1947 70.5467 22.9702 70.2572 22.8448C69.8788 22.6829 69.4251 22.5758 68.9281 22.5758C68.349 22.5758 67.8235 22.6727 67.3971 22.8733C66.9697 23.0739 66.6106 23.3475 66.329 23.6883C66.0475 24.028 65.8354 24.4327 65.7009 24.8921C65.5653 25.3492 65.4969 25.8473 65.4969 26.3728C65.4969 26.9075 65.5676 27.4056 65.7078 27.8536C65.8491 28.305 66.0748 28.7028 66.3803 29.0323C66.6847 29.364 67.0768 29.6239 67.5465 29.8052C68.0127 29.9853 68.5792 30.0787 69.2301 30.0776C70.5695 30.073 71.2752 29.7744 71.5658 29.6136C71.6171 29.5852 71.6662 29.535 71.6046 29.3914L71.3014 28.5421C71.2558 28.4156 71.127 28.4623 71.127 28.4623C70.7952 28.5854 70.3233 28.8066 69.2233 28.8043C68.504 28.8032 67.9705 28.5911 67.6365 28.2594C67.2934 27.9197 67.1258 27.4204 67.0962 26.716L71.7345 26.7205C71.7345 26.7205 71.8565 26.7182 71.8691 26.5997C71.8736 26.5495 72.0286 25.6467 71.7311 24.6014Z" fill="white"/>
<path d="M29.9714 25.5715C30.0375 25.1303 30.1583 24.7633 30.3464 24.4772C30.6302 24.0428 31.0634 23.8046 31.6721 23.8046C32.2809 23.8046 32.6833 24.044 32.9728 24.4772C33.1632 24.7633 33.2464 25.1463 33.2794 25.5715H29.9714ZM34.5835 24.6014C34.4672 24.1625 34.18 23.7191 33.9907 23.5162C33.6921 23.1947 33.4003 22.9702 33.1107 22.8448C32.7323 22.6829 32.2786 22.5758 31.7816 22.5758C31.2036 22.5758 30.677 22.6727 30.2507 22.8733C29.8232 23.0739 29.4641 23.3475 29.1825 23.6883C28.901 24.028 28.689 24.4327 28.5545 24.8921C28.4199 25.3492 28.3504 25.8473 28.3504 26.3728C28.3504 26.9075 28.4211 27.4056 28.5613 27.8536C28.7026 28.305 28.9283 28.7028 29.2338 29.0323C29.5382 29.364 29.9303 29.6239 30.4 29.8052C30.8662 29.9853 31.4328 30.0787 32.0837 30.0776C33.4231 30.073 34.1287 29.7744 34.4194 29.6136C34.4707 29.5852 34.5197 29.535 34.4581 29.3914L34.156 28.5421C34.1093 28.4156 33.9805 28.4623 33.9805 28.4623C33.6488 28.5854 33.178 28.8066 32.0757 28.8043C31.3575 28.8032 30.824 28.5911 30.49 28.2594C30.1469 27.9197 29.9794 27.4204 29.9497 26.716L34.5881 26.7205C34.5881 26.7205 34.71 26.7182 34.7226 26.5997C34.7271 26.5495 34.8822 25.6467 34.5835 24.6014Z" fill="white"/>
<path d="M19.9457 28.6085C19.7644 28.4637 19.7393 28.4272 19.6778 28.3337C19.5866 28.1913 19.5398 27.9884 19.5398 27.7307C19.5398 27.3226 19.6744 27.0297 19.9536 26.8325C19.9502 26.8336 20.3526 26.4848 21.2987 26.4973C21.9633 26.5065 22.5572 26.6045 22.5572 26.6045V28.7133H22.5584C22.5584 28.7133 21.969 28.8399 21.3056 28.8798C20.3617 28.9368 19.9422 28.6073 19.9457 28.6085ZM21.7912 25.3494C21.6031 25.3357 21.3592 25.3278 21.0673 25.3278C20.6695 25.3278 20.2854 25.3779 19.9251 25.4748C19.5626 25.5717 19.2366 25.7233 18.9562 25.924C18.6746 26.1257 18.4478 26.3833 18.2836 26.6888C18.1195 26.9943 18.0363 27.3546 18.0363 27.7581C18.0363 28.1685 18.107 28.5253 18.2483 28.8171C18.3897 29.11 18.5937 29.354 18.8536 29.5421C19.1112 29.7302 19.4293 29.8681 19.7986 29.9513C20.1622 30.0345 20.5749 30.0767 21.0263 30.0767C21.5017 30.0767 21.9759 30.0379 22.4352 29.9593C22.8901 29.8818 23.4486 29.7689 23.6037 29.7336C23.7576 29.6971 23.9285 29.6504 23.9285 29.6504C24.0437 29.6219 24.0346 29.4987 24.0346 29.4987L24.0323 25.2571C24.0323 24.3269 23.7838 23.6373 23.2948 23.2098C22.808 22.7835 22.091 22.568 21.1642 22.568C20.8166 22.568 20.2569 22.6159 19.9217 22.6831C19.9217 22.6831 18.9083 22.8792 18.4911 23.2052C18.4911 23.2052 18.3999 23.2622 18.4501 23.3899L18.7784 24.2722C18.8194 24.3862 18.93 24.3474 18.93 24.3474C18.93 24.3474 18.9653 24.3338 19.0064 24.3098C19.8989 23.8242 21.0274 23.839 21.0274 23.839C21.529 23.839 21.9143 23.9393 22.1742 24.1388C22.4273 24.3326 22.5561 24.6256 22.5561 25.2434V25.4395C22.1571 25.3825 21.7912 25.3494 21.7912 25.3494Z" fill="white"/>
<path d="M59.2014 22.9596C59.2367 22.8547 59.1626 22.8046 59.1319 22.7932C59.0532 22.7624 58.6588 22.6792 58.3544 22.6598C57.7719 22.6244 57.4482 22.7225 57.1587 22.8524C56.8714 22.9824 56.5522 23.1921 56.3744 23.4304V22.8661C56.3744 22.7875 56.3185 22.7248 56.241 22.7248H55.0521C54.9746 22.7248 54.9187 22.7875 54.9187 22.8661V29.7843C54.9187 29.8618 54.9825 29.9257 55.0601 29.9257H56.2786C56.3561 29.9257 56.4188 29.8618 56.4188 29.7843V26.3281C56.4188 25.8641 56.4701 25.4013 56.5727 25.1106C56.673 24.8234 56.8098 24.5931 56.9785 24.4278C57.1484 24.2637 57.341 24.1485 57.5519 24.0836C57.7674 24.0174 58.0056 23.9958 58.1743 23.9958C58.4171 23.9958 58.6839 24.0585 58.6839 24.0585C58.7728 24.0687 58.8229 24.014 58.8526 23.9331C58.9324 23.7211 59.1581 23.0861 59.2014 22.9596Z" fill="white"/>
<path d="M47.7632 19.7537C47.615 19.7081 47.4805 19.6773 47.3049 19.6443C47.1271 19.6124 46.9151 19.5964 46.6746 19.5964C45.8356 19.5964 45.1744 19.8335 44.7105 20.3009C44.2488 20.766 43.9353 21.4738 43.778 22.4052L43.721 22.7186H42.6677C42.6677 22.7186 42.54 22.7141 42.5127 22.8532L42.3406 23.8187C42.328 23.9099 42.3679 23.968 42.491 23.968H43.5158L42.4762 29.7725C42.3953 30.2399 42.3018 30.624 42.1981 30.9158C42.0966 31.2031 41.9974 31.4185 41.8743 31.5758C41.7558 31.7263 41.6441 31.838 41.4503 31.903C41.2907 31.9566 41.106 31.9817 40.9043 31.9817C40.7925 31.9817 40.6432 31.9634 40.5326 31.9406C40.4232 31.919 40.3651 31.895 40.2819 31.8597C40.2819 31.8597 40.1622 31.8141 40.1143 31.9338C40.0767 32.033 39.8031 32.7842 39.77 32.8765C39.7381 32.9688 39.7837 33.0407 39.8419 33.0623C39.9786 33.1102 40.0801 33.1421 40.2659 33.1866C40.5235 33.247 40.7412 33.2504 40.9453 33.2504C41.3716 33.2504 41.7615 33.19 42.0841 33.0737C42.4078 32.9563 42.6905 32.7522 42.9413 32.4764C43.2115 32.1777 43.3813 31.8654 43.5432 31.4379C43.7039 31.0161 43.8418 30.4918 43.9513 29.8808L44.9966 23.968H46.5241C46.5241 23.968 46.6529 23.9726 46.6791 23.8323L46.8524 22.868C46.8638 22.7756 46.825 22.7186 46.7008 22.7186H45.2177C45.2257 22.6856 45.293 22.1635 45.4628 21.6722C45.5358 21.4636 45.6726 21.2937 45.7877 21.1775C45.9017 21.0635 46.0328 20.9825 46.1764 20.9358C46.3235 20.8879 46.491 20.8651 46.6746 20.8651C46.8136 20.8651 46.9516 20.8811 47.0553 20.9027C47.1989 20.9335 47.2548 20.9495 47.2924 20.9609C47.444 21.0065 47.4645 20.962 47.4942 20.8891L47.8487 19.9156C47.8851 19.8107 47.7951 19.7662 47.7632 19.7537Z" fill="white"/>
<path d="M27.0422 29.7845C27.0422 29.862 26.9864 29.9247 26.9089 29.9247H25.6789C25.6014 29.9247 25.5467 29.862 25.5467 29.7845V19.8854C25.5467 19.8079 25.6014 19.7452 25.6789 19.7452H26.9089C26.9864 19.7452 27.0422 19.8079 27.0422 19.8854V29.7845Z" fill="white"/>
</svg>
