<svg width="18" height="18" viewBox="0 0 18 18" fill="none" xmlns="http://www.w3.org/2000/svg">
<path d="M4.2473 15.723C4.09148 15.6072 3.99576 15.4514 3.96014 15.2555C3.92898 15.0641 3.95792 14.837 4.04696 14.5743L5.42266 10.494L1.91663 7.97631C1.68957 7.81603 1.53152 7.64908 1.44248 7.47545C1.35344 7.29736 1.34008 7.11483 1.40241 6.92784C1.46474 6.7453 1.58272 6.60951 1.75635 6.52047C1.92999 6.42698 2.15704 6.38245 2.43753 6.38691L6.73158 6.41362L8.04049 2.31323C8.12508 2.04611 8.23639 1.84354 8.3744 1.70552C8.51687 1.56306 8.68382 1.49182 8.87526 1.49182C9.07116 1.49182 9.23811 1.56306 9.37613 1.70552C9.51859 1.84354 9.63212 2.04611 9.71671 2.31323L11.0256 6.41362L15.3197 6.38691C15.6002 6.38245 15.8272 6.42698 16.0009 6.52047C16.1745 6.60951 16.2925 6.7453 16.3548 6.92784C16.4171 7.11483 16.4038 7.29736 16.3147 7.47545C16.2257 7.64908 16.0676 7.81603 15.8406 7.97631L12.3345 10.494L13.7102 14.5743C13.7993 14.837 13.826 15.0641 13.7904 15.2555C13.7592 15.4514 13.6657 15.6072 13.5099 15.723C13.3541 15.8476 13.1782 15.8921 12.9823 15.8565C12.7864 15.8209 12.5772 15.723 12.3546 15.5627L8.87526 13.005L5.40262 15.5627C5.18002 15.723 4.97077 15.8209 4.77488 15.8565C4.57899 15.8921 4.40313 15.8476 4.2473 15.723Z" fill="black"/>
</svg>
