<svg width="265" height="37" viewBox="0 0 265 37" fill="none" xmlns="http://www.w3.org/2000/svg">
<g clip-path="url(#clip0_11_18093)">
<path d="M39.5493 18.4724C39.5493 20.1155 37.7991 21.1425 36.3989 20.3209C34.9988 19.4994 34.9988 17.4455 36.3989 16.6239C37.3991 16.0077 38.6492 16.3671 39.2493 17.3941C39.4993 17.7535 39.5493 18.113 39.5493 18.4724ZM33.1986 14.724C32.2484 14.724 31.6484 15.8023 32.0984 16.6752C32.5485 17.5481 33.7986 17.5481 34.2487 16.6752C34.3487 16.4698 34.3987 16.2645 34.3987 16.0077C34.4487 15.2888 33.8986 14.724 33.1986 14.724ZM31.6984 10.2567C30.4482 10.2567 29.6981 11.6431 30.2982 12.7214C30.8983 13.7997 32.4485 13.7997 33.0485 12.7214C33.1986 12.4647 33.2486 12.208 33.2486 11.8999C33.2986 10.9756 32.5985 10.2567 31.6984 10.2567ZM29.0981 6.81643C27.9479 6.81643 27.2479 8.04879 27.7979 9.07574C28.348 10.1027 29.7982 10.1027 30.3482 9.07574C30.7483 8.35687 30.4982 7.43261 29.7982 7.02183C29.5981 6.91913 29.3481 6.81643 29.0981 6.81643ZM25.8477 4.76252C24.8976 4.76252 24.2975 5.84082 24.7476 6.71374C25.1976 7.58665 26.4478 7.58665 26.8978 6.71374C26.9978 6.50835 27.0478 6.30296 27.0478 6.04622C27.0978 5.37869 26.5478 4.81387 25.8477 4.76252ZM22.3973 3.94095C21.5972 3.94095 21.0471 4.86521 21.4472 5.58408C21.8472 6.30296 22.8973 6.30296 23.2974 5.58408C23.3974 5.43004 23.4474 5.22465 23.4474 5.01926C23.4474 4.45443 22.9974 3.9923 22.3973 3.94095ZM19.0469 4.095C18.3968 4.095 17.9968 4.81387 18.3468 5.37869C18.5968 5.78948 19.0969 5.94352 19.4469 5.68678C19.697 5.53274 19.847 5.276 19.847 4.96791C19.847 4.50578 19.4969 4.14634 19.0469 4.095ZM16.0965 4.81387C15.6965 4.81387 15.3965 5.12195 15.3965 5.53274C15.3965 5.94352 15.6965 6.25161 16.0965 6.25161C16.4966 6.25161 16.7966 5.94352 16.7966 5.53274C16.7966 5.1733 16.4966 4.86521 16.0965 4.81387ZM13.5962 5.99487C13.2462 5.99487 12.9962 6.25161 12.9962 6.61104C12.9962 6.97048 13.2462 7.22722 13.5962 7.22722C13.9463 7.22722 14.1963 6.97048 14.1963 6.61104C14.1963 6.25161 13.9463 5.99487 13.5962 5.99487ZM11.396 7.48396C10.9959 7.48396 10.6959 7.79204 10.6959 8.20283C10.6959 8.61361 10.9959 8.9217 11.396 8.9217C11.796 8.9217 12.0961 8.61361 12.0961 8.20283C12.0961 7.79204 11.796 7.48396 11.396 7.48396ZM9.29574 9.53787C8.84568 9.53787 8.49564 9.89731 8.49564 10.3594C8.49564 10.5135 8.54565 10.6675 8.59565 10.7702C8.79568 11.181 9.29574 11.3351 9.69578 11.0783C9.94581 10.9243 10.0958 10.6675 10.0958 10.3594C10.0958 9.94866 9.74579 9.58922 9.29574 9.53787ZM7.54553 12.362C6.79544 12.362 6.34539 13.1836 6.69543 13.8511C7.04547 14.5186 7.99558 14.5186 8.39563 13.8511C8.49564 13.6971 8.54565 13.543 8.54565 13.3376C8.49564 12.8241 8.09559 12.362 7.54553 12.362ZM6.54541 15.9564C5.74532 15.9564 5.24526 16.8293 5.64531 17.5481C6.04535 18.267 7.04547 18.267 7.44552 17.5481C7.54553 17.3941 7.59554 17.1887 7.59554 17.0347C7.54553 16.4185 7.09548 15.9564 6.54541 15.9564ZM6.59542 19.6021C5.64531 19.6021 5.04524 20.6804 5.49529 21.5533C5.94534 22.4262 7.19549 22.4262 7.64554 21.5533C7.74555 21.3479 7.79556 21.1425 7.79556 20.8858C7.84557 20.2182 7.2955 19.6534 6.59542 19.6021ZM8.0956 23.4018C6.84545 23.4018 6.09536 24.7369 6.69543 25.8152C7.2955 26.8935 8.84568 26.9448 9.44575 25.8665C9.59577 25.6098 9.64578 25.353 9.69578 25.0449C9.69578 24.172 8.9957 23.4532 8.0956 23.4018C8.0956 23.4532 8.0956 23.4532 8.0956 23.4018ZM10.6959 27.0475C9.54577 27.0475 8.84568 28.3312 9.44575 29.3068C9.99582 30.3338 11.446 30.3338 11.9961 29.3068C12.1461 29.1014 12.1961 28.7933 12.1961 28.5366C12.1961 27.715 11.496 27.0475 10.6959 27.0475C10.6959 27.0989 10.6959 27.0989 10.6959 27.0475ZM13.8463 29.4609C12.8962 29.4609 12.2961 30.5392 12.7461 31.4121C13.1962 32.285 14.4463 32.285 14.8964 31.4121C14.9964 31.2067 15.0464 31.0013 15.0464 30.7446C15.0964 30.077 14.5464 29.5122 13.8463 29.4609C13.8463 29.5122 13.8463 29.5122 13.8463 29.4609ZM17.3967 30.7959C16.5966 30.7959 16.0465 31.7202 16.4466 32.439C16.8466 33.1579 17.8968 33.1579 18.2968 32.439C18.3968 32.285 18.4468 32.0796 18.4468 31.8742C18.4468 31.258 17.9468 30.7959 17.3967 30.7959C17.3467 30.7959 17.3467 30.7959 17.3967 30.7959ZM20.7471 31.104C20.297 31.104 19.947 31.4634 19.947 31.9256C19.947 32.3877 20.297 32.7471 20.7471 32.7471C21.1971 32.7471 21.5472 32.3877 21.5472 31.9256C21.5472 31.5148 21.1971 31.1553 20.7471 31.104C20.7471 31.1553 20.7471 31.1553 20.7471 31.104ZM23.6974 30.5905C23.2974 30.5905 22.9974 30.8986 22.9974 31.3094C22.9974 31.7202 23.2974 32.0283 23.6974 32.0283C24.0975 32.0283 24.3975 31.7202 24.3975 31.3094C24.3975 30.9499 24.0475 30.6419 23.6974 30.5905ZM26.1977 29.6663C25.8477 29.6663 25.5977 29.923 25.5977 30.2824C25.5977 30.6419 25.8477 30.8986 26.1977 30.8986C26.5478 30.8986 26.7978 30.6419 26.7978 30.2824C26.7978 29.923 26.4978 29.6663 26.1977 29.6663ZM28.398 28.0231C27.9979 28.0231 27.6979 28.3312 27.6979 28.742C27.6979 29.1528 27.9979 29.4609 28.398 29.4609C28.798 29.4609 29.0981 29.1528 29.0981 28.742C29.0981 28.3312 28.798 28.0231 28.398 28.0231ZM30.4982 25.7125C29.8482 25.7125 29.4481 26.4313 29.7982 26.9962C30.0482 27.4069 30.5482 27.561 30.8983 27.3042C31.1483 27.1502 31.2983 26.8935 31.2983 26.5854C31.2983 26.0719 30.9483 25.7125 30.4982 25.7125ZM32.2484 22.5802C31.4984 22.5802 31.0483 23.4018 31.3983 24.0693C31.7484 24.7369 32.6985 24.7369 33.0985 24.0693C33.1986 23.9153 33.2486 23.7612 33.2486 23.5559C33.1986 23.0424 32.7485 22.5802 32.2484 22.5802ZM33.2486 18.8832C32.4985 18.8832 31.9984 19.7561 32.3985 20.4236C32.7985 21.0912 33.7486 21.0912 34.1487 20.4236C34.2487 20.2696 34.2987 20.1155 34.2987 19.9101C34.2487 19.3453 33.7986 18.8832 33.2486 18.8832ZM29.2481 17.6508C28.498 17.6508 27.9979 18.4724 28.398 19.1399C28.748 19.8075 29.6981 19.8075 30.0982 19.1913C30.1982 19.0372 30.2482 18.8318 30.2482 18.6778C30.1982 18.113 29.7481 17.6508 29.2481 17.6508ZM25.4476 16.7779C25.1476 16.7779 24.8976 17.0347 24.8976 17.3428C24.8976 17.6508 25.1476 17.9076 25.4476 17.9076C25.7477 17.9076 25.9977 17.6508 25.9977 17.3428C25.9977 17.0347 25.7977 16.7779 25.4476 16.7779C25.4976 16.7779 25.4476 16.7779 25.4476 16.7779ZM24.4475 14.1078C24.0475 14.1078 23.6974 14.4673 23.6974 14.8781C23.6974 15.0321 23.7474 15.1348 23.7974 15.2888C23.9975 15.6483 24.4475 15.8023 24.8476 15.5969C25.0476 15.3915 25.1976 15.1348 25.1976 14.8781C25.1976 14.4159 24.8476 14.1078 24.4475 14.1078ZM21.9472 11.8485C21.1471 11.8485 20.6471 12.7214 21.0471 13.4403C21.4472 14.1592 22.4473 14.1592 22.8473 13.4403C22.9473 13.2863 22.9974 13.0809 22.9974 12.9268C22.9473 12.3107 22.5473 11.8485 21.9472 11.8485ZM18.5968 11.4377C17.6967 11.4377 17.1467 12.4134 17.5967 13.2349C18.0468 14.0565 19.1469 14.0565 19.597 13.2349C19.697 13.0295 19.747 12.8241 19.747 12.6187C19.747 12.0026 19.2469 11.4377 18.5968 11.4377ZM15.7465 13.1322C14.8964 13.1322 14.3463 14.1078 14.7964 14.8267C15.2464 15.5969 16.2966 15.5969 16.6966 14.8267C16.7966 14.6727 16.8466 14.4673 16.8466 14.2619C16.8966 13.6457 16.3966 13.1322 15.7465 13.1322C15.7965 13.1322 15.7965 13.1322 15.7465 13.1322ZM14.2963 16.2131C13.8963 16.2131 13.5462 16.5725 13.5462 16.9833C13.5462 17.3941 13.8963 17.7535 14.2963 17.7535C14.6964 17.7535 15.0464 17.3941 15.0464 16.9833C15.0464 16.5725 14.7464 16.2131 14.2963 16.2131ZM14.3963 19.1399C14.0963 19.1399 13.8463 19.3967 13.8463 19.7048C13.8463 20.0128 14.0963 20.2696 14.3963 20.2696C14.6964 20.2696 14.9464 20.0128 14.9464 19.7048C14.8964 19.3967 14.6464 19.1399 14.3963 19.1399ZM15.3965 21.3479C14.9964 21.3479 14.6464 21.7073 14.6464 22.1181C14.6464 22.2722 14.6964 22.3748 14.7464 22.5289C14.9464 22.8883 15.3965 23.0424 15.7965 22.837C16.0465 22.6829 16.1966 22.4262 16.1966 22.1695C16.0965 21.7073 15.7965 21.3992 15.3965 21.3479C15.3464 21.3992 15.3464 21.3992 15.3965 21.3479ZM17.8968 23.0937C17.0967 23.0937 16.5966 23.9666 16.9966 24.6855C16.9966 25.2503 17.4467 25.7638 18.0468 25.7638C18.5968 25.7638 19.0969 25.3017 19.0969 24.6855C19.0969 24.4801 19.0469 24.3261 18.9469 24.172C18.8969 23.5558 18.4468 23.0937 17.8968 23.0937C17.8467 23.0937 17.8467 23.0937 17.8968 23.0937ZM21.1971 23.1964C20.297 23.1964 19.747 24.172 20.197 24.9936C20.6471 25.8152 21.7472 25.8152 22.1973 24.9936C22.2973 24.7882 22.3473 24.5828 22.3473 24.3774C22.3973 23.7099 21.8472 23.1964 21.1971 23.1964ZM24.0975 21.656C23.2474 21.656 22.6973 22.5802 23.1474 23.3505C23.5974 24.1207 24.6475 24.1207 25.0476 23.3505C25.1476 23.1964 25.1976 22.991 25.1976 22.7856C25.1976 22.1695 24.6475 21.656 24.0975 21.656C24.0475 21.656 24.0475 21.656 24.0975 21.656ZM25.5477 19.294C25.1476 19.294 24.7976 19.6534 24.7976 20.0642C24.7976 20.2182 24.8476 20.3209 24.8976 20.475C25.0976 20.8344 25.5477 20.9885 25.8977 20.7831C26.1477 20.629 26.2977 20.3723 26.2977 20.1155C26.2477 19.6021 25.8977 19.294 25.5477 19.294C25.4976 19.294 25.4976 19.294 25.5477 19.294ZM28.798 13.6457C27.8479 13.6457 27.2479 14.724 27.6979 15.5969C28.198 16.4698 29.3981 16.4698 29.8482 15.5969C29.9482 15.3915 29.9982 15.1861 29.9982 14.9808C29.9982 14.2105 29.4481 13.6457 28.798 13.6457C28.748 13.6457 28.748 13.6457 28.798 13.6457ZM26.6478 10.0514C25.4976 10.0514 24.7476 11.3351 25.3476 12.362C25.9477 13.389 27.3479 13.389 27.9479 12.362C28.098 12.1053 28.148 11.8485 28.148 11.5918C28.148 10.7189 27.4979 10.0514 26.6478 10.0514ZM23.4474 7.99744C22.3973 7.99744 21.7472 9.12709 22.2973 10.0514C22.7973 10.9756 24.0975 10.9756 24.5975 10.0514C24.6976 9.84596 24.7976 9.58922 24.7976 9.38383C24.7976 8.61361 24.1975 7.99744 23.4474 7.99744C23.4474 8.04878 23.4474 8.04878 23.4474 7.99744ZM19.947 7.58665C19.0469 7.58665 18.4468 8.61361 18.8969 9.38383C19.3469 10.2054 20.4971 10.2054 20.9471 9.38383C21.0471 9.17844 21.0971 8.97305 21.0971 8.76766C21.0971 8.15148 20.5471 7.638 19.947 7.58665C19.897 7.638 19.897 7.638 19.947 7.58665ZM16.3966 8.76766C15.6965 8.76766 15.2964 9.53787 15.6465 10.1027C15.9965 10.7189 16.8466 10.7189 17.1467 10.1027C17.2467 9.94866 17.2467 9.79461 17.2467 9.64057C17.2467 9.17844 16.8466 8.76766 16.3966 8.76766C16.3466 8.819 16.3466 8.819 16.3966 8.76766ZM13.3962 10.9243C12.9462 10.9243 12.5961 11.2837 12.5961 11.7458C12.5961 12.208 12.9462 12.5674 13.3962 12.5674C13.8463 12.5674 14.1963 12.208 14.1963 11.7458C14.1963 11.2837 13.8463 10.9243 13.3962 10.9243C13.3462 10.9243 13.3462 10.9243 13.3962 10.9243ZM11.396 13.9538C10.9459 13.9538 10.5959 14.3132 10.5959 14.7754C10.5959 15.2375 10.9459 15.5969 11.396 15.5969C11.846 15.5969 12.1961 15.2375 12.1961 14.7754C12.1961 14.3646 11.796 13.9538 11.396 13.9538C11.346 14.0051 11.346 14.0051 11.396 13.9538ZM10.5459 17.2914C9.7958 17.2914 9.34574 18.113 9.69578 18.7805C10.0458 19.448 10.9959 19.448 11.396 18.7805C11.496 18.6265 11.546 18.4724 11.546 18.267C11.496 17.7535 11.0459 17.2914 10.5459 17.2914C10.4959 17.3428 10.4959 17.3428 10.5459 17.2914ZM11.0459 20.7317C10.0958 20.7317 9.49576 21.81 9.94581 22.6829C10.3959 23.5559 11.646 23.5559 12.0961 22.6829C12.1961 22.4775 12.2461 22.2722 12.2461 22.0668C12.2461 21.2965 11.696 20.7317 11.0459 20.7317C10.9959 20.7317 10.9959 20.7317 10.9959 20.7317H11.0459ZM13.1462 23.8126C11.9961 23.8126 11.246 25.0963 11.846 26.1232C12.4461 27.1502 13.8463 27.1502 14.4463 26.1232C14.5964 25.8665 14.6464 25.6098 14.6464 25.353C14.6464 24.5315 13.9463 23.8639 13.1462 23.8126C13.0962 23.8126 13.0962 23.8126 13.0962 23.8126H13.1462ZM16.3466 26.1746C15.2964 26.1746 14.6464 27.3042 15.1964 28.2285C15.6965 29.1528 16.9966 29.1528 17.5467 28.2285C17.6467 28.0231 17.7467 27.7664 17.7467 27.561C17.6967 26.7908 17.0967 26.1746 16.3466 26.1746C16.3466 26.1746 16.2966 26.1746 16.3466 26.1746ZM19.897 26.8935C18.9969 26.8935 18.3968 27.9204 18.8469 28.742C19.2969 29.5636 20.4471 29.5636 20.8971 28.742C20.9971 28.5366 21.0471 28.3312 21.0471 28.1258C21.0471 27.4069 20.5471 26.8935 19.897 26.8935C19.847 26.8935 19.847 26.8935 19.847 26.8935H19.897ZM23.4474 26.38C22.7473 26.38 22.3473 27.1502 22.6973 27.715C23.0474 28.3312 23.8975 28.3312 24.1975 27.715C24.2975 27.561 24.2975 27.4069 24.2975 27.2529C24.2975 26.7908 23.9475 26.38 23.4474 26.38C23.3974 26.38 23.3974 26.38 23.4474 26.38ZM26.4478 24.3774C25.9977 24.3774 25.6477 24.7369 25.6477 25.199C25.6477 25.6611 25.9977 26.0205 26.4478 26.0205C26.8978 26.0205 27.2479 25.6611 27.2479 25.199C27.2479 24.7369 26.8978 24.3774 26.4478 24.3774H26.3978H26.4478ZM28.448 21.2965C27.9979 21.2965 27.6479 21.656 27.6479 22.1181C27.6479 22.2722 27.6979 22.4262 27.7479 22.5289C27.9479 22.9397 28.448 23.0424 28.848 22.837C29.0981 22.6829 29.2481 22.4262 29.2481 22.1181C29.2481 21.656 28.898 21.2965 28.448 21.2965H28.398H28.448ZM36.699 10.9243C35.2988 10.9243 34.4487 12.4647 35.1488 13.6971C35.8489 14.9294 37.5491 14.9294 38.2491 13.6971C38.3992 13.4403 38.4992 13.0809 38.4992 12.7728C38.4992 11.7458 37.6991 10.9243 36.699 10.9243ZM34.3987 6.66239C33.1986 6.66239 32.4985 7.99744 33.0485 9.02439C33.6486 10.0514 35.0988 10.0514 35.6989 9.02439C35.8489 8.76766 35.8989 8.51092 35.8989 8.25418C35.9489 7.38126 35.2488 6.66239 34.3987 6.66239ZM30.9983 3.32478C29.9982 3.32478 29.3481 4.45443 29.8482 5.37869C30.3482 6.30296 31.6484 6.30296 32.1484 5.37869C32.2484 5.1733 32.3485 4.91656 32.3485 4.71117C32.2985 3.94095 31.6984 3.32478 30.9983 3.32478ZM27.1978 1.32221C26.3978 1.32221 25.8477 2.24647 26.2477 2.96534C26.6478 3.68421 27.6979 3.68421 28.098 2.96534C28.398 2.45186 28.198 1.78434 27.6979 1.47625C27.5479 1.37356 27.3979 1.32221 27.1978 1.32221ZM23.4474 0.29525C22.7473 0.29525 22.2973 1.06547 22.6473 1.73299C22.9974 2.34917 23.8975 2.34917 24.2475 1.73299C24.3475 1.57895 24.3975 1.4249 24.3975 1.27086C24.3975 0.706034 23.9975 0.29525 23.4474 0.29525C23.4474 0.243903 23.4474 0.243903 23.4474 0.29525ZM19.947 0.0385109C19.4969 0.0385109 19.1469 0.346598 19.0969 0.80873C19.0969 0.962773 19.0969 1.11682 19.1969 1.21951C19.3969 1.6303 19.897 1.78434 20.247 1.57895C20.5471 1.4249 20.6971 1.11682 20.6971 0.80873C20.6971 0.346598 20.347 -0.012837 19.947 0.0385109C19.897 -0.012837 19.897 -0.012837 19.947 0.0385109ZM16.4466 0.29525C15.7465 0.29525 15.2964 1.06547 15.6465 1.73299C15.9965 2.40051 16.8966 2.34917 17.2467 1.73299C17.3467 1.57895 17.3967 1.4249 17.3967 1.27086C17.3967 0.706034 16.9966 0.29525 16.4466 0.29525C16.4466 0.243903 16.3966 0.243903 16.3966 0.243903L16.4466 0.29525ZM12.6961 1.32221C11.896 1.27086 11.296 2.14377 11.646 2.91399C11.9961 3.68421 13.0462 3.73556 13.4962 3.01669C13.8463 2.50321 13.6963 1.83569 13.1962 1.47625C13.0462 1.37356 12.7961 1.27086 12.5961 1.27086L12.6961 1.32221ZM8.84568 3.32478C7.84557 3.32478 7.19549 4.45443 7.69555 5.37869C8.19561 6.30296 9.49576 6.30296 9.99582 5.37869C10.0958 5.1733 10.1958 4.91656 10.1958 4.71117C10.1958 3.94095 9.59577 3.32478 8.84568 3.32478H8.79568H8.84568ZM5.44528 6.66239C4.24514 6.66239 3.54506 7.99744 4.09512 9.02439C4.69519 10.0514 6.14537 10.0514 6.74544 9.02439C6.89545 8.76766 6.94546 8.51092 6.94546 8.25418C6.99547 7.38126 6.34539 6.66239 5.44528 6.66239H5.39528H5.44528ZM3.19502 10.9243C1.79485 10.9243 0.944752 12.4647 1.64483 13.6971C2.34492 14.9294 4.09512 14.9294 4.79521 13.6971C4.94522 13.389 5.04524 13.0809 5.04524 12.7728C4.99523 11.7458 4.19514 10.9243 3.19502 10.9243H3.14501H3.19502ZM2.29491 16.3158C0.694723 16.3158 -0.305395 18.113 0.494699 19.5507C1.29479 20.9885 3.29503 20.9885 4.09512 19.5507C4.69519 18.5238 4.34515 17.2401 3.34504 16.6239C2.99499 16.4185 2.64495 16.3158 2.29491 16.3158ZM3.09501 22.3235C1.69484 22.3235 0.844741 23.8639 1.54482 25.0963C2.24491 26.3286 3.99511 26.3286 4.69519 25.0963C5.19525 24.2234 4.89522 23.0937 4.04512 22.5802C3.74508 22.4262 3.44505 22.3235 3.09501 22.3235ZM5.39528 27.1502C4.19514 27.1502 3.49505 28.4339 4.04512 29.5122C4.59518 30.5905 6.09536 30.5392 6.69543 29.5122C6.84545 29.2555 6.89545 28.9987 6.89545 28.742C6.94546 27.8691 6.24538 27.1502 5.39528 27.1502ZM8.79568 30.8986C7.79556 30.8986 7.14548 32.0283 7.64554 32.9525C8.1456 33.8768 9.44575 33.8768 9.94581 32.9525C10.0458 32.7471 10.1458 32.4904 10.1458 32.285C10.0958 31.5148 9.54577 30.9499 8.79568 30.8986ZM12.5961 33.466C11.746 33.466 11.246 34.3903 11.646 35.1091C12.0461 35.828 13.0962 35.8793 13.4962 35.1091C13.5962 34.9551 13.6462 34.7497 13.6462 34.5443C13.6963 33.9281 13.1962 33.466 12.5961 33.466ZM16.3466 34.801C15.6465 34.801 15.1964 35.5713 15.5465 36.2388C15.8965 36.855 16.7966 36.855 17.1467 36.2388C17.2467 36.0847 17.2967 35.9307 17.2467 35.7253C17.2967 35.2118 16.8966 34.801 16.3466 34.801ZM19.847 35.3145C19.3969 35.3145 19.0469 35.674 19.0469 36.1361C19.0469 36.5982 19.3969 36.9577 19.847 36.9577C20.297 36.9577 20.6471 36.5982 20.6471 36.1361C20.6471 35.674 20.297 35.3145 19.847 35.3145ZM23.3474 34.801C22.6473 34.801 22.1973 35.5713 22.5473 36.2388C22.8973 36.855 23.7974 36.855 24.1475 36.2388C24.2475 36.0847 24.2475 35.9307 24.2475 35.7766C24.2975 35.2118 23.8975 34.801 23.3474 34.801ZM27.1478 33.466C26.2977 33.466 25.7977 34.3903 26.1977 35.1091C26.5978 35.828 27.6479 35.828 28.0479 35.1091C28.348 34.5956 28.148 33.9281 27.6479 33.62C27.4979 33.5173 27.3479 33.466 27.1478 33.466ZM30.9483 30.8986C29.9482 30.8986 29.2981 32.0283 29.7982 32.9525C30.2982 33.8768 31.5984 33.8768 32.0984 32.9525C32.4485 32.285 32.2484 31.4634 31.5984 31.104C31.3983 31.0013 31.1983 30.9499 30.9483 30.8986ZM34.3487 27.1502C33.1486 27.1502 32.4485 28.4339 32.9985 29.5122C33.5486 30.5905 35.0488 30.5392 35.6488 29.5122C36.0489 28.742 35.7989 27.8177 35.0988 27.3556C34.8988 27.2529 34.6487 27.1502 34.3487 27.1502ZM36.699 22.3748C35.2988 22.3748 34.4487 23.9153 35.1488 25.1476C35.8489 26.38 37.5991 26.38 38.2992 25.1476C38.7992 24.2747 38.4992 23.1451 37.6491 22.6316C37.299 22.4775 36.999 22.3748 36.699 22.3748Z" fill="#717171"/>
<path d="M175.257 25.7966C175.257 25.9507 175.157 26.0534 175.057 26.0534H175.007H172.457C172.206 26.0534 172.156 25.848 172.056 25.6426L169.056 20.4564H168.606C168.056 20.4564 166.356 20.4051 165.906 20.3538V25.6426C165.906 25.848 165.756 26.0534 165.506 26.0534H163.405C163.155 26.0534 163.005 25.848 163.005 25.6426V11.6246C163.005 11.2138 163.255 11.0598 163.655 11.0084C165.306 10.803 166.956 10.7517 168.606 10.7517C171.806 10.7517 174.757 11.9327 174.757 15.5784V15.7838C174.757 18.0431 173.657 19.2754 171.956 19.943L175.207 25.6939C175.207 25.6939 175.257 25.7453 175.257 25.7966ZM171.856 15.5271C171.856 13.9353 170.656 13.2164 168.556 13.2164C168.106 13.2164 166.206 13.2677 165.856 13.3191V17.9404C166.206 17.9404 168.206 17.9917 168.556 17.9917C170.706 17.9917 171.856 17.581 171.856 15.6811V15.5271ZM244.365 25.7966C244.365 25.9507 244.265 26.0534 244.165 26.0534H244.115H241.565C241.315 26.0534 241.265 25.848 241.165 25.6426L238.164 20.4564H237.714C237.164 20.4564 235.464 20.4051 235.014 20.3538V25.6426C235.014 25.848 234.864 26.0534 234.614 26.0534H232.514C232.264 26.0534 232.114 25.848 232.114 25.6426V11.6246C232.114 11.2138 232.364 11.0598 232.764 11.0084C234.414 10.803 236.064 10.7517 237.714 10.7517C240.915 10.7517 243.865 11.9327 243.865 15.5784V15.7838C243.865 18.0431 242.765 19.2754 241.065 19.943L244.315 25.6939C244.315 25.6939 244.365 25.7453 244.365 25.7966ZM240.965 15.5271C240.965 13.9353 239.764 13.2164 237.664 13.2164C237.214 13.2164 235.314 13.2677 234.964 13.3191V17.9404C235.314 17.9404 237.314 17.9917 237.664 17.9917C239.814 17.9917 240.965 17.581 240.965 15.6811V15.5271ZM180.357 19.4295H187.008C187.258 19.4295 187.408 19.2241 187.408 19.0187V17.4783C187.408 17.2215 187.208 17.0675 187.008 17.0675H180.357V15.1163C180.357 13.3191 180.407 13.2677 182.008 13.2677H187.258C187.508 13.2677 187.658 13.0624 187.658 12.857V11.4706C187.658 11.1625 187.558 11.0598 187.258 11.0084C185.758 10.803 184.258 10.7003 182.758 10.7003C179.307 10.7003 177.457 10.7003 177.457 15.0649V21.8428C177.457 26.2588 179.307 26.2074 182.758 26.2074C184.258 26.2074 185.758 26.1561 187.258 25.8993C187.558 25.848 187.658 25.7453 187.658 25.4372V24.1021C187.658 23.8454 187.458 23.6914 187.258 23.6914H182.008C180.457 23.6914 180.357 23.64 180.357 21.8428V19.4295ZM221.462 19.4295H228.113C228.363 19.4295 228.513 19.2241 228.513 19.0187V17.4783C228.513 17.2215 228.313 17.0675 228.113 17.0675H221.462V15.1163C221.462 13.3191 221.512 13.2677 223.113 13.2677H228.363C228.613 13.2677 228.763 13.0624 228.763 12.857V11.4706C228.763 11.1625 228.663 11.0598 228.363 11.0084C226.863 10.803 225.363 10.7003 223.863 10.7003C220.412 10.7003 218.562 10.7003 218.562 15.0649V21.8428C218.562 26.2588 220.412 26.2074 223.863 26.2074C225.363 26.2074 226.863 26.1561 228.363 25.8993C228.663 25.848 228.763 25.7453 228.763 25.4372V24.1021C228.763 23.8454 228.563 23.6914 228.363 23.6914H223.113C221.562 23.6914 221.462 23.64 221.462 21.8428V19.4295ZM202.81 20.1484V11.2652C202.81 11.0598 202.61 10.8544 202.41 10.8544H200.36C200.16 10.8544 199.96 11.0084 199.96 11.2138V20.097C199.96 22.5617 198.86 23.6914 196.609 23.6914C194.359 23.6914 193.259 22.5617 193.259 20.097V11.2652C193.259 11.0598 193.059 10.8544 192.859 10.8544H190.759C190.559 10.8544 190.359 11.0084 190.359 11.2652V20.1484C190.359 24.7183 193.259 26.2074 196.609 26.2074C199.96 26.2074 202.81 24.7183 202.81 20.1484ZM258.567 13.7812C258.517 16.1946 261.067 17.735 263.117 16.6054C265.167 15.4244 265.217 12.3948 263.217 11.1625C262.717 10.8544 262.167 10.7003 261.617 10.7003C259.967 10.649 258.617 11.984 258.567 13.6272C258.567 13.6785 258.567 13.7299 258.567 13.7812ZM259.017 13.7812C259.017 11.7273 261.217 10.4436 262.967 11.4706C264.717 12.4975 264.667 15.1163 262.917 16.0919C262.517 16.2973 262.067 16.4513 261.617 16.4513C260.217 16.5027 259.067 15.4244 259.017 13.9866C259.017 13.9353 259.017 13.8839 259.017 13.7812ZM263.017 15.1676L262.367 14.038C262.717 13.9353 262.967 13.5758 262.917 13.2164V13.165C262.917 12.4462 262.317 12.1894 261.667 12.1894C261.317 12.1894 261.017 12.1894 260.667 12.2408C260.567 12.2408 260.517 12.2921 260.517 12.3435V15.1676C260.517 15.219 260.567 15.2703 260.617 15.2703H261.017C261.067 15.2703 261.117 15.219 261.117 15.1676V14.1407H261.717L262.317 15.1676C262.317 15.219 262.367 15.2703 262.417 15.2703H262.917C262.967 15.2703 263.017 15.219 263.017 15.1676ZM262.367 13.165C262.367 13.5245 262.117 13.6272 261.717 13.6272H261.167V12.6516H261.717C262.117 12.7029 262.367 12.8056 262.367 13.165ZM60.3433 13.3191H56.1928V25.6426C56.1928 25.8993 55.9928 26.0534 55.7928 26.0534H53.7425C53.4925 26.0534 53.3425 25.848 53.3425 25.6426V13.3191H49.192C48.992 13.3191 48.7919 13.165 48.7919 12.9597V11.2652C48.7919 11.0598 48.992 10.8544 49.192 10.8544H60.3933C60.5933 10.8544 60.7933 11.0084 60.7933 11.2652V12.9597C60.7433 13.165 60.5433 13.3704 60.3433 13.3191C60.3433 13.3704 60.2933 13.3191 60.3433 13.3191ZM216.312 13.3191H212.161V25.6426C212.161 25.8993 211.961 26.0534 211.761 26.0534H209.711C209.461 26.0534 209.311 25.848 209.311 25.6426V13.3191H205.16C204.96 13.3191 204.76 13.165 204.76 12.9597V11.2652C204.76 11.0598 204.96 10.8544 205.16 10.8544H216.262C216.462 10.8544 216.662 11.0084 216.662 11.2652V12.9597C216.662 13.165 216.462 13.3704 216.312 13.3191C216.262 13.3191 216.262 13.3191 216.262 13.3191H216.312ZM75.5451 25.6426V11.2652C75.5451 11.0598 75.3451 10.8544 75.145 10.8544H73.0948C72.8948 10.8544 72.6947 11.0084 72.6947 11.2652V16.8107H66.044V11.2652C66.044 11.0598 65.8439 10.8544 65.6439 10.8544H63.5937C63.3937 10.8544 63.1936 11.0084 63.1936 11.2652V25.6426C63.1936 25.8993 63.3937 26.0534 63.5937 26.0534H65.6439C65.894 26.0534 66.044 25.848 66.044 25.6426V19.4295H72.6447V25.6426C72.6447 25.8993 72.8448 26.0534 73.0448 26.0534H75.095C75.2951 26.0534 75.4951 25.848 75.5451 25.6426ZM91.597 17.3756V19.5835C91.597 24.3075 88.3966 26.2588 84.9962 26.2588C81.5958 26.2588 78.3954 24.3075 78.3954 19.5835V17.3756C78.3954 12.6516 81.5958 10.7003 84.9962 10.7003C88.3966 10.7003 91.547 12.6516 91.597 17.3756ZM88.6966 17.3756C88.6966 14.5514 87.0464 13.2677 84.9962 13.2677C82.946 13.2677 81.2958 14.5514 81.2958 17.3756V19.5835C81.2958 22.4077 82.946 23.6914 84.9962 23.6914C87.0464 23.6914 88.6966 22.4077 88.6966 19.5835V17.3756ZM138.353 17.3756V19.5835C138.353 24.3075 135.152 26.2588 131.752 26.2588C128.351 26.2588 125.151 24.3075 125.151 19.5835V17.3756C125.151 12.6516 128.351 10.7003 131.752 10.7003C135.152 10.7003 138.353 12.6516 138.353 17.3756ZM135.452 17.3756C135.452 14.5514 133.802 13.2677 131.752 13.2677C129.701 13.2677 128.051 14.5514 128.051 17.3756V19.5835C128.051 22.4077 129.701 23.6914 131.752 23.6914C133.802 23.6914 135.452 22.4077 135.452 19.5835V17.3756ZM109.249 25.7453V11.7273C109.249 11.2652 108.899 10.8544 108.399 10.8544H106.699C106.349 10.8544 106.049 11.0598 105.949 11.3679L101.948 19.7376C101.848 19.943 101.798 20.0457 101.698 20.0457C101.598 20.0457 101.548 19.943 101.448 19.7376L97.4477 11.3679C97.2977 11.0598 96.9976 10.8544 96.6976 10.8544H94.9974C94.5473 10.8544 94.1473 11.2138 94.1473 11.7273V25.7453C94.1473 25.9507 94.2973 26.0534 94.4473 26.0534H94.4973H96.5976C96.7976 26.002 96.9476 25.848 96.9476 25.6426V16.4C96.9476 16.2459 96.9476 16.1946 96.9976 16.1946C97.0476 16.1946 97.0476 16.2459 97.0976 16.2973L100.498 23.9481C100.648 24.2048 100.898 24.3075 101.148 24.3075H102.248C102.498 24.3075 102.748 24.2048 102.898 23.9481L106.249 16.2973C106.299 16.2459 106.349 16.1946 106.349 16.1946C106.349 16.1946 106.399 16.2459 106.399 16.4V25.6426C106.399 25.848 106.549 26.0534 106.749 26.0534H108.849C108.999 26.0534 109.149 25.9507 109.249 25.7453C109.199 25.7453 109.199 25.7453 109.249 25.7453ZM153.854 25.2318V11.2652C153.854 11.0598 153.704 10.8544 153.504 10.8544C153.504 10.8544 153.504 10.8544 153.454 10.8544H151.604C151.404 10.8544 151.204 11.0084 151.204 11.2138C151.204 11.2138 151.204 11.2138 151.204 11.2652V21.8428C151.204 21.9455 151.154 22.0482 151.104 22.0482C151.054 22.0482 150.954 21.9969 150.954 21.8942L145.053 11.6246C144.803 11.0598 144.553 10.9571 144.153 10.9571H141.903C141.453 10.9571 141.053 11.3165 141.053 11.83V25.6426C141.053 25.8993 141.253 26.0534 141.453 26.0534H143.203C143.403 26.0534 143.603 25.848 143.603 25.6426V15.5784C143.603 15.4757 143.653 15.4244 143.703 15.4244C143.753 15.4244 143.803 15.4757 143.903 15.5784L149.554 25.2832C149.704 25.848 150.254 26.1561 150.804 26.0534H152.904C153.454 26.0534 153.854 25.6426 153.854 25.2318C153.854 25.1805 153.854 25.1805 153.854 25.2318ZM122.951 21.7915C122.951 19.7376 121.801 18.6593 120.05 17.9404C118.65 17.3756 117.45 16.8621 116.55 16.5027C115.65 16.1432 114.85 15.4757 114.85 14.7568C114.85 13.7812 116 13.2164 117.55 13.2164C119.1 13.2677 120.65 13.3704 122.151 13.6272H122.201C122.401 13.6272 122.551 13.4731 122.551 13.2677V11.676C122.551 11.4706 122.401 11.3165 122.201 11.2652C120.7 10.9057 119.2 10.7003 117.7 10.7003C113.85 10.7003 111.999 12.3948 111.999 14.7568C111.949 16.4 112.949 17.9404 114.45 18.5052C116.25 19.2754 120 20.1484 120 21.7401C120 22.9725 119.45 23.64 117.6 23.64C116.05 23.5887 114.45 23.486 112.9 23.2292H112.749C112.549 23.2292 112.349 23.3833 112.349 23.64V25.1805C112.349 25.3858 112.549 25.5912 112.749 25.5912C114.3 25.9507 115.9 26.1561 117.45 26.1561C121.601 26.2074 122.951 23.8968 122.951 21.7915ZM257.117 21.7915C257.117 19.7376 255.966 18.6593 254.216 17.9404C252.816 17.3756 251.616 16.8621 250.716 16.5027C249.816 16.1432 249.016 15.4757 249.016 14.7568C249.016 13.7812 250.166 13.2164 251.716 13.2164C253.216 13.2677 254.766 13.4218 256.266 13.6272H256.316C256.516 13.6272 256.666 13.4731 256.666 13.2677V11.676C256.666 11.4706 256.516 11.3165 256.316 11.2652C254.816 10.9057 253.316 10.7003 251.816 10.7003C247.965 10.7003 246.115 12.3948 246.115 14.7568C246.065 16.4 247.065 17.9404 248.566 18.5052C250.366 19.2754 254.116 20.1484 254.116 21.7401C254.116 22.9725 253.566 23.64 251.716 23.64C250.166 23.5887 248.566 23.486 247.015 23.2292H246.965C246.765 23.2292 246.565 23.4346 246.565 23.64V25.1805C246.565 25.3858 246.765 25.5912 246.965 25.5912C248.515 25.9507 250.066 26.1561 251.666 26.1561C255.766 26.2074 257.067 23.8968 257.117 21.7915Z" fill="black"/>
</g>
<defs>
<clipPath id="clip0_11_18093">
<rect width="264.474" height="36.9577" fill="white" transform="translate(0.213104)"/>
</clipPath>
</defs>
</svg>
