<svg width="118" height="24" viewBox="0 0 118 24" fill="none" xmlns="http://www.w3.org/2000/svg">
<g clip-path="url(#clip0_11_18133)">
<path d="M87.5636 23.0298H92.735V13.5638C92.735 11.3986 93.9876 9.87757 95.8486 9.87757C97.638 9.87757 98.5685 11.1302 98.5685 12.9375V23.0298H103.74V11.9533C103.74 8.19552 101.485 5.54719 97.8349 5.54719C95.5086 5.54719 93.8803 6.54926 92.6635 8.37447H92.5561V6.04823H87.5457L87.5636 23.0298ZM77.3997 5.58298C71.9957 5.58298 68.3811 9.46601 68.3811 14.5837C68.3811 19.6657 71.9957 23.5845 77.3997 23.5845C82.8038 23.5845 86.4184 19.6657 86.4184 14.5837C86.4363 9.46601 82.8038 5.58298 77.3997 5.58298ZM77.364 19.7552C74.9125 19.7552 73.6062 17.6973 73.6062 14.5837C73.6062 11.4344 74.8946 9.41233 77.364 9.41233C79.8155 9.41233 81.1754 11.4344 81.1754 14.5837C81.1933 17.6973 79.8334 19.7552 77.364 19.7552ZM53.6363 23.0298H68.1664V18.9499H59.935V18.8425L67.8085 10.0207V6.03033H53.6363V10.1281H61.5992V10.2355L53.6363 19.1289V23.0298ZM46.9976 23.0298H52.2048V6.04823H46.9976V23.0298ZM34.919 23.0298H40.1083V15.2279C40.1083 11.6849 42.2377 10.1102 45.4766 10.5576H45.5839V6.08401C45.3155 5.97665 45.0113 5.95876 44.5282 5.95876C42.5061 5.95876 41.1462 6.88925 39.9831 8.8755H39.8757V6.04823H34.919V23.0298ZM25.3993 19.773C23.1089 19.773 21.7131 18.2878 21.4447 15.9974H33.6843C33.7201 12.347 32.7538 9.43022 30.7318 7.60502C29.3002 6.28085 27.4214 5.54719 25.0235 5.54719C19.9058 5.54719 16.3628 9.43022 16.3628 14.5122C16.3628 19.6299 19.7448 23.5308 25.3635 23.5308C27.4929 23.5308 29.175 22.9582 30.5707 22.0098C32.0559 20.9898 33.1296 19.4867 33.4159 18.0015H28.4413C27.9582 19.111 26.9203 19.773 25.3993 19.773ZM25.1309 9.25128C26.9561 9.25128 28.2087 10.6112 28.4234 12.5975H21.4805C21.8921 10.5933 22.9836 9.25128 25.1309 9.25128ZM6.01994 23.0298H11.4598L17.3648 6.04823H12.1576L8.84722 16.9637H8.77564L5.46522 6.04823H0.114868L6.01994 23.0298ZM46.9976 0H52.2048V4.61669H46.9976V0Z" fill="black"/>
<path d="M115.192 3.26581L108.768 17.0085L106.352 11.8013H103.74L107.712 20.3189H109.824L117.787 3.26581H115.192Z" fill="#747474"/>
</g>
<defs>
<clipPath id="clip0_11_18133">
<rect width="117.672" height="23.5845" fill="white" transform="translate(0.114868)"/>
</clipPath>
</defs>
</svg>
